<svg width="0" height="0" class="hidden">
  <symbol fill="none" xmlns="http://www.w3.org/2000/svg" viewBox="0 0 40 34" id="cart">
    <path d="M1.684 0A1.69 1.69 0 000 1.684a1.69 1.69 0 001.684 1.684h3.737l4.422 17.685a3.34 3.34 0 003.262 2.526H32.42c1.52 0 2.81-1.007 3.21-2.474L40 5.053H11.79l.842 3.368h23l-3.21 11.79H13.104L8.684 2.526A3.34 3.34 0 005.424 0h-3.74zm28.632 23.58c-2.77 0-5.053 2.282-5.053 5.053 0 2.77 2.282 5.052 5.053 5.052 2.77 0 5.052-2.282 5.052-5.052 0-2.77-2.282-5.053-5.052-5.053zm-15.158 0c-2.77 0-5.053 2.282-5.053 5.053 0 2.77 2.282 5.052 5.053 5.052 2.77 0 5.053-2.282 5.053-5.052 0-2.77-2.283-5.053-5.053-5.053zm0 3.368c.948 0 1.684.738 1.684 1.685 0 .948-.738 1.684-1.684 1.684a1.663 1.663 0 01-1.684-1.684c0-.949.737-1.685 1.684-1.685zm15.158 0c.948 0 1.684.738 1.684 1.685 0 .948-.738 1.684-1.684 1.684a1.663 1.663 0 01-1.684-1.684c0-.949.737-1.685 1.684-1.685z" fill="#fff"></path>
  </symbol>
  <symbol fill="none" xmlns="http://www.w3.org/2000/svg" viewBox="0 0 40 40" id="fb">
    <path d="M17.39 13.874v2.754h-2.016v3.366h2.016V30h4.144V19.994h2.78s.262-1.614.388-3.38H21.55v-2.3c0-.346.452-.808.9-.808h2.256V10h-3.07c-4.348 0-4.246 3.37-4.246 3.874z" fill="#fff"></path>
    <path d="M8 4a4 4 0 00-4 4v24a4 4 0 004 4h24a4 4 0 004-4V8a4 4 0 00-4-4H8zm0-4h24a8 8 0 018 8v24a8 8 0 01-8 8H8a8 8 0 01-8-8V8a8 8 0 018-8z" fill="#fff"></path>
  </symbol>
  <symbol fill="none" xmlns="http://www.w3.org/2000/svg" viewBox="0 0 40 40" id="insta">
    <path fill-rule="evenodd" clip-rule="evenodd" d="M11.755.12C13.886.022 14.566 0 20 0s6.113.024 8.244.12c2.13.096 3.585.436 4.858.93a9.84 9.84 0 013.542 2.308 9.769 9.769 0 012.305 3.54c.495 1.273.833 2.727.931 4.855.098 2.136.12 2.816.12 8.247 0 5.433-.024 6.113-.12 8.245-.096 2.128-.436 3.582-.93 4.855a9.81 9.81 0 01-2.306 3.544 9.806 9.806 0 01-3.542 2.305c-1.273.495-2.727.833-4.855.931-2.134.098-2.814.12-8.247.12s-6.113-.024-8.245-.12c-2.128-.096-3.582-.436-4.855-.93a9.812 9.812 0 01-3.544-2.306 9.802 9.802 0 01-2.307-3.542C.556 31.829.22 30.375.12 28.247.022 26.111 0 25.431 0 20c0-5.433.024-6.113.12-8.244.096-2.13.436-3.585.93-4.858a9.811 9.811 0 012.308-3.542 9.804 9.804 0 013.54-2.307C8.171.556 9.625.22 11.753.12h.002zm16.327 3.6c-2.11-.096-2.742-.116-8.082-.116-5.34 0-5.973.02-8.082.116-1.95.09-3.009.415-3.714.69-.933.363-1.6.794-2.3 1.494a6.204 6.204 0 00-1.495 2.3c-.274.705-.6 1.763-.689 3.714-.096 2.11-.116 2.742-.116 8.082 0 5.34.02 5.973.116 8.082.09 1.95.415 3.009.69 3.714a6.21 6.21 0 001.494 2.3 6.209 6.209 0 002.3 1.495c.705.274 1.763.6 3.714.689 2.11.096 2.74.116 8.082.116 5.342 0 5.973-.02 8.082-.116 1.95-.09 3.009-.415 3.714-.69.933-.363 1.6-.794 2.3-1.494a6.21 6.21 0 001.495-2.3c.274-.705.6-1.763.689-3.714.096-2.11.116-2.742.116-8.082 0-5.34-.02-5.973-.116-8.082-.09-1.95-.415-3.009-.69-3.714-.363-.933-.794-1.6-1.494-2.3a6.206 6.206 0 00-2.3-1.495c-.705-.274-1.763-.6-3.714-.689zM17.445 26.166a6.671 6.671 0 007.273-10.884 6.674 6.674 0 00-11.317 3.74 6.675 6.675 0 004.044 7.144zM12.731 12.73a10.28 10.28 0 1114.538 14.538A10.28 10.28 0 0112.73 12.731zm19.829-1.48a2.43 2.43 0 10-3.335-3.536 2.43 2.43 0 003.335 3.536z" fill="#fff"></path>
  </symbol>
</svg>