<svg width="40" height="34" viewBox="0 0 40 34" fill="none" xmlns="http://www.w3.org/2000/svg">
<path d="M1.68421 6.86653e-05C0.757895 6.86653e-05 0 0.757963 0 1.68428C0 2.61059 0.757895 3.36849 1.68421 3.36849H5.42147L9.84253 21.0527C10.2164 22.5516 11.5604 23.579 13.1048 23.579H32.4211C33.9402 23.579 35.2303 22.5719 35.6312 21.1049L40 5.0527H11.7895L12.6316 8.42112H35.6312L32.4211 20.2106H13.1048L8.68379 2.52638C8.50164 1.80101 8.08129 1.15777 7.49009 0.699706C6.89888 0.241644 6.17104 -0.00472544 5.42316 6.86653e-05H1.68421ZM30.3158 23.579C27.5453 23.579 25.2632 25.8611 25.2632 28.6316C25.2632 31.4022 27.5453 33.6843 30.3158 33.6843C33.0863 33.6843 35.3684 31.4022 35.3684 28.6316C35.3684 25.8611 33.0863 23.579 30.3158 23.579ZM15.1579 23.579C12.3874 23.579 10.1053 25.8611 10.1053 28.6316C10.1053 31.4022 12.3874 33.6843 15.1579 33.6843C17.9284 33.6843 20.2105 31.4022 20.2105 28.6316C20.2105 25.8611 17.9284 23.579 15.1579 23.579ZM15.1579 26.9474C16.1061 26.9474 16.8421 27.6851 16.8421 28.6316C16.8421 29.5799 16.1044 30.3159 15.1579 30.3159C14.2097 30.3159 13.4737 29.5782 13.4737 28.6316C13.4737 27.6834 14.2114 26.9474 15.1579 26.9474ZM30.3158 26.9474C31.264 26.9474 32 27.6851 32 28.6316C32 29.5799 31.2623 30.3159 30.3158 30.3159C29.3676 30.3159 28.6316 29.5782 28.6316 28.6316C28.6316 27.6834 29.3693 26.9474 30.3158 26.9474Z" fill="white"/>
</svg>
